<svg width="1200" height="630" viewBox="0 0 1200 630" xmlns="http://www.w3.org/2000/svg">
  <defs>
    <!-- Rose/Peach gradient background -->
    <linearGradient id="bgGrad" x1="0%" y1="0%" x2="100%" y2="100%">
      <stop offset="0%" style="stop-color:#FFF7F7;stop-opacity:1" />
      <stop offset="50%" style="stop-color:#FFF1F2;stop-opacity:1" />
      <stop offset="100%" style="stop-color:#FCE7F3;stop-opacity:1" />
    </linearGradient>

    <!-- Rose accent gradient -->
    <linearGradient id="roseGrad" x1="0%" y1="0%" x2="100%" y2="100%">
      <stop offset="0%" style="stop-color:#F43F5E;stop-opacity:1" />
      <stop offset="100%" style="stop-color:#FB7185;stop-opacity:1" />
    </linearGradient>

    <!-- Lavender accent gradient -->
    <linearGradient id="lavenderGrad" x1="0%" y1="0%" x2="100%" y2="100%">
      <stop offset="0%" style="stop-color:#A78BFA;stop-opacity:1" />
      <stop offset="100%" style="stop-color:#C4B5FD;stop-opacity:1" />
    </linearGradient>

    <!-- Decorative circle gradient -->
    <radialGradient id="circleGrad" cx="50%" cy="50%" r="50%" fx="50%" fy="50%">
      <stop offset="0%" style="stop-color:#F43F5E;stop-opacity:0.15" />
      <stop offset="100%" style="stop-color:#F43F5E;stop-opacity:0" />
    </radialGradient>
  </defs>

  <!-- Background -->
  <rect width="1200" height="630" fill="url(#bgGrad)"/>

  <!-- Decorative circles -->
  <circle cx="1100" cy="100" r="300" fill="url(#circleGrad)"/>
  <circle cx="100" cy="530" r="200" fill="url(#circleGrad)"/>

  <!-- Logo container -->
  <rect x="80" y="180" width="100" height="100" rx="24" fill="url(#roseGrad)"/>
  <text x="130" y="245" font-family="Arial, sans-serif" font-size="48" fill="white" text-anchor="middle">🌸</text>

  <!-- Main Title -->
  <text x="220" y="220" font-family="Arial, sans-serif" font-size="64" font-weight="bold" fill="#1F2937">
    VacyMax
  </text>

  <!-- Subtitle -->
  <text x="220" y="280" font-family="Arial, sans-serif" font-size="32" fill="#6B7280">
    Turn Your PTO Into Epic Vacations
  </text>

  <!-- Feature highlight box -->
  <rect x="80" y="340" width="500" height="80" rx="16" fill="white" fill-opacity="0.8"/>
  <text x="110" y="390" font-family="Arial, sans-serif" font-size="28" fill="#F43F5E" font-weight="600">
    ✨ Get up to 3x more vacation days
  </text>

  <!-- Stats boxes -->
  <rect x="80" y="450" width="180" height="100" rx="16" fill="white" fill-opacity="0.9"/>
  <text x="170" y="495" font-family="Arial, sans-serif" font-size="36" fill="#F43F5E" font-weight="bold" text-anchor="middle">50+</text>
  <text x="170" y="530" font-family="Arial, sans-serif" font-size="14" fill="#6B7280" text-anchor="middle">COUNTRIES</text>

  <rect x="280" y="450" width="180" height="100" rx="16" fill="white" fill-opacity="0.9"/>
  <text x="370" y="495" font-family="Arial, sans-serif" font-size="36" fill="#A78BFA" font-weight="bold" text-anchor="middle">FREE</text>
  <text x="370" y="530" font-family="Arial, sans-serif" font-size="14" fill="#6B7280" text-anchor="middle">TO START</text>

  <rect x="480" y="450" width="180" height="100" rx="16" fill="white" fill-opacity="0.9"/>
  <text x="570" y="495" font-family="Arial, sans-serif" font-size="36" fill="#F43F5E" font-weight="bold" text-anchor="middle">60s</text>
  <text x="570" y="530" font-family="Arial, sans-serif" font-size="14" fill="#6B7280" text-anchor="middle">TO PLAN</text>

  <!-- Right side illustration - Calendar/vacation visual -->
  <rect x="720" y="140" width="400" height="350" rx="24" fill="white" fill-opacity="0.95"/>

  <!-- Calendar header -->
  <rect x="720" y="140" width="400" height="60" rx="24" fill="url(#roseGrad)"/>
  <rect x="720" y="176" width="400" height="24" fill="url(#roseGrad)"/>
  <text x="920" y="180" font-family="Arial, sans-serif" font-size="24" fill="white" font-weight="bold" text-anchor="middle">Your Dream Year 2026</text>

  <!-- Calendar days visual -->
  <g transform="translate(750, 220)">
    <!-- Row 1 -->
    <rect x="0" y="0" width="40" height="40" rx="8" fill="#FEE2E2"/>
    <rect x="50" y="0" width="40" height="40" rx="8" fill="#F3F4F6"/>
    <rect x="100" y="0" width="40" height="40" rx="8" fill="#F3F4F6"/>
    <rect x="150" y="0" width="40" height="40" rx="8" fill="#F43F5E"/>
    <rect x="200" y="0" width="40" height="40" rx="8" fill="#F43F5E"/>
    <rect x="250" y="0" width="40" height="40" rx="8" fill="#F43F5E"/>
    <rect x="300" y="0" width="40" height="40" rx="8" fill="#FEE2E2"/>

    <!-- Row 2 -->
    <rect x="0" y="50" width="40" height="40" rx="8" fill="#FEE2E2"/>
    <rect x="50" y="50" width="40" height="40" rx="8" fill="#F43F5E"/>
    <rect x="100" y="50" width="40" height="40" rx="8" fill="#A78BFA"/>
    <rect x="150" y="50" width="40" height="40" rx="8" fill="#F3F4F6"/>
    <rect x="200" y="50" width="40" height="40" rx="8" fill="#F3F4F6"/>
    <rect x="250" y="50" width="40" height="40" rx="8" fill="#F3F4F6"/>
    <rect x="300" y="50" width="40" height="40" rx="8" fill="#FEE2E2"/>

    <!-- Row 3 -->
    <rect x="0" y="100" width="40" height="40" rx="8" fill="#FEE2E2"/>
    <rect x="50" y="100" width="40" height="40" rx="8" fill="#F3F4F6"/>
    <rect x="100" y="100" width="40" height="40" rx="8" fill="#F3F4F6"/>
    <rect x="150" y="100" width="40" height="40" rx="8" fill="#F3F4F6"/>
    <rect x="200" y="100" width="40" height="40" rx="8" fill="#F3F4F6"/>
    <rect x="250" y="100" width="40" height="40" rx="8" fill="#F3F4F6"/>
    <rect x="300" y="100" width="40" height="40" rx="8" fill="#FEE2E2"/>

    <!-- Row 4 -->
    <rect x="0" y="150" width="40" height="40" rx="8" fill="#FEE2E2"/>
    <rect x="50" y="150" width="40" height="40" rx="8" fill="#F3F4F6"/>
    <rect x="100" y="150" width="40" height="40" rx="8" fill="#F3F4F6"/>
    <rect x="150" y="150" width="40" height="40" rx="8" fill="#F3F4F6"/>
    <rect x="200" y="150" width="40" height="40" rx="8" fill="#A78BFA"/>
    <rect x="250" y="150" width="40" height="40" rx="8" fill="#F43F5E"/>
    <rect x="300" y="150" width="40" height="40" rx="8" fill="#F43F5E"/>
  </g>

  <!-- Legend -->
  <g transform="translate(750, 430)">
    <rect x="0" y="0" width="16" height="16" rx="4" fill="#F43F5E"/>
    <text x="24" y="13" font-family="Arial, sans-serif" font-size="12" fill="#6B7280">Your PTO</text>

    <rect x="100" y="0" width="16" height="16" rx="4" fill="#A78BFA"/>
    <text x="124" y="13" font-family="Arial, sans-serif" font-size="12" fill="#6B7280">Holiday</text>

    <rect x="200" y="0" width="16" height="16" rx="4" fill="#FEE2E2"/>
    <text x="224" y="13" font-family="Arial, sans-serif" font-size="12" fill="#6B7280">Weekend</text>
  </g>

  <!-- URL -->
  <text x="920" y="590" font-family="Arial, sans-serif" font-size="24" font-weight="bold" fill="#F43F5E" text-anchor="middle">
    vacymax.com
  </text>
</svg>
